<svg width="1440" height="252" viewBox="0 0 1440 252" xmlns="http://www.w3.org/2000/svg">
  <path d="M2275 135.5h-2.05369l-14.37584-15.786667L2243.96644 135.5H2241l2.28188-16 29.89262.213333L2275 135.5zm-2-17l-13-14.380531L2269.86207 93.5l3.13793 25zm-4-28l-9-9.205479L2266.75 74.5h.45l1.8 16zm-.68908-30L2267 50.5l26 10h-24.68908zM2266 71.5l-5-9h4.10714l.89286 9zm-1-9h-5l4.42308-8 .57692 8zm-.7-12.5l-.6-1 .6.2v.8zm.35455-18.5l-.65455-4 12 4h-11.34545zM2264 47.5l-2-.923077-1.8-2.769231-.2-.461538L2263 38.5l1 9zm-1.2-12.1l-1.6-1 1.4-.8.2 1.8zm-.2-4.9l-1.2-1.0909091 1-.9090909.2 2zm-1.3-8.2l-.6-.2v-.2l.6-1.2v1.6zm-1.3-3.8h-3l1.5-12 1.5 12zm-3.2 2.2l.6 1.2-.8.4.2-1.6zm-.3 7.8l1.2 1-1.2 1h-.2l.2-2zm-1 5l1.4.8-1.8 1.2.4-2zm-.23684 5L2258 43.738095l-2.73684 4.285715L2254 48.5l1.26316-10zM2255 25.5l-.68421 4H2242l13-4zm2 35h-4l.66667-5 3.33333 5zm-4.33333 2H2256l-4 8 .66667-8zM2251 50.5v.697674L2249.89831 60.5H2225l26-10zm-1.67442 24h.69768L2257 81.113333 2247 90.5l2.32558-16zM2270 116.5l-23-.214286L2258.61386 104.5 2270 116.5zm-2-25.454545L2259.29268 101.5 2251 91.272727 2259.70732 81.5 2268 91.045455zm-3-16.371542L2260.11111 78.5 2255 74.5l10 .173913zM2264 71.5h-12l6.22222-9 5.77778 9zm0-16l-4.62857 4-4.37143-4h9zm-3.75-7l1.25.352941L2264 51.5l-9-.176471 2-1.941176 3.25-.882353zm-2.25-2.3l.2.4h-.2l-.2.2.2-.6zm3-9.2185185L2258.2 40.5l-2.2-3.5185185L2258.4 35.5l2.6 1.4814815zM2260 26.5l-1-.8823529L2260 23.5l1 1.9411765L2260 26.5zm0 6.5l-1.4 1-1.6-1h3zm-12.80702 60.5L2257 104.409091 2244 118.5l3.19298-25zm.80702 42l12.11215-13L2272 135.5h-24zm-163 0h-1.92366l-11.54199-13.784615L2059.77863 135.5H2057l1.92366-14 24.58016.215385L2085 135.5zm-2-15l-12-12.666667L2080.17647 98.5l2.82353 22zm-2-25l-9-8.09375 6.5-5.90625h.25l2.25 14zm-2.85714-25L2077 61.5l24 9h-22.85714zM2078 80.5l-5-9h4.2l.8 9zm-1-10h-4l3.47826-5 .52174 5zm-.7-9.6l-.6-.8.6.2v.6zm-.84167-16.6L2075 40.5l11 4-10.54167-.2zM2076 58.5l-1.5-.705882-1.33333-2.588236-.16667-.470588L2075.16667 50.5l.83333 8zm-1.3-10.2l-1.4-.8 1.2-.8.2 1.6zm-2.1-3.9l-1.2-1 1-.8.2 1.8zm-.3-8.2l-.6-.2v-.2l.4-1 .2 1.4zm-.3-3.7h-2l1-11 1 11zm-3.2 1.4l.6 1-.8.2.2-1.2zm-.2 8.6l1 1-1 1h-.2l.2-2zm-.2 4.1l1.4.8-1.6 1 .2-1.8zm-.4625 3.9L2070 55.121622l-2.0625 3.891892L2067 59.5l.9375-9zm-.9375-10l-.70588 4H2055l12-4zm2 30h-4l.57143-5 3.42857 5zm-3.42857 3H2069l-4 5 .57143-5zM2064 61.5v.710526L2062.89423 70.5H2041l23-9zm-.86842 20h.71053L2070 87.227273 2061 95.5l2.13158-14zM2081 120.5l-21-.22 10.61798-10.78L2081 120.5zm-2-23.935897L2070.89041 105.5 2063 96.782051 2071.10959 88.5 2079 96.564103zm-4-14.873627L2070.61538 85.5 2066 81.5l9 .190476zM2076 80.5h-11l5.61224-8 5.38776 8zm-1-15l-4.12903 4-3.87097-4h8zm-4.25-6l1 .4 2.25 2.6-8-.2 1.75-2 3-.8zm.25-2.1l.2.2h-.4l.2-.2zm2-6.733333L2070.81818 53.5 2069 50.666667 2070.81818 49.5 2073 50.666667zM2071 41.5l-1-.857143L2071 38.5l1 2.142857-1 .857143zm1 3.6l-.92308.8L2070 45.1h2zm-11.36 53.4l8.36 9.525773L2058 120.5l2.64-22zm-.64 39l10.61538-12L2081 137.5h-21zm-362 0h-2.16667l-10.4-12.77193L1674.81667 137.5H1672l1.51667-13 22.75.22807L1698 137.5zm-1-14l-11-12.133333 8.36957-8.866667 2.63043 21zm-3-24l-8-7.526316L1692 86.5h.25l1.75 13zm-.07368-21l-.92632-9 22 9h-21.07368zm-.92632 8l-4-8h3.30435l.69565 8zm-3-11h-4l3.42857-4 .57143 4zm1.3-6.6l-.6-.8.4.2.2.6zm-1.84545-17.4l-.45455-3 10 3h-9.54545zM1689 67.5l-1.5-.774194-1.3125-2.580645-.1875-.258064L1688.25 59.5l.75 8zm-1.4-10.3l-1.2-.8 1-.6.2 1.4zm-.1-4.8l-1-1 .8-.8.2 1.8zm-1.2-6.3l-.6-.2v-.2l.4-.8.2 1.2zm-.3-3.6h-2l1.09091-10 .90909 10zm-2.1 2.4l.4 1-.6.2.2-1.2zm-.3 5.8l1 .8-1 .8h-.2l.2-1.6zm-1.1 4.9l1.2.8-1.4 1 .2-1.8zm-.5 3.9l2 4.235294-2 3.294118-1 .470588 1-8zm0-11l-.44444 3H1672l10-3zm2 27h-4l.63158-4 3.36842 4zm-4.2 4h3.2l-4 5 .8-5zm.2-10v.470588L1679.06383 77.5H1658l22-8zm-2.11765 17h.47059L1684 91.916667 1676 99.5l1.88235-13zM1694 121.5l-17-.222222 8.60494-9.777778 8.39506 10zm-1-19.816901L1685.78788 109.5 1679 101.894366 1686.21212 94.5 1693 101.683099zm-2-13.972573L1686.62857 91.5 1682 87.5l9 .210526zM1691 86.5h-10l5.22727-8 4.77273 8zm-3-15l-2.59259 4-2.40741-4h5zm-3.06897-4l.68966.153846L1687 69.5l-5-.153846 1.03448-1.384616 1.89655-.461538zM1685 65.3l.2.4h-.4l.2-.4zm2-6.657143L1684.8 61.5l-1.8-2.857143L1685 57.5l2 1.142857zM1684.8 49.5l-.8-.615385L1685 47.5l1 1.384615-1.2.615385zm1.2 5.6l-1 .8-1-.8h2zm-10.13043 47.4L1684 111.136364 1673 122.5l2.86957-20zm2.13043 34l8.60759-10 8.39241 10h-17zm-973-1h-1.733333l-10.833334-12.783333-11.05 12.783333H679l1.733333-13 22.75.216667L705 135.5zm-1-14l-11-12.133333L701.369565 100.5 704 121.5zm-3-23l-8-7.526316L699 85.5h.25l1.75 13zm-1.073684-22L699 67.5l22 9h-21.073684zM699 84.5l-4-8h3.304348L699 84.5zm0-9h-4l3.428571-4L699 75.5zm-1.7-6.6l-.6-.8.4.2.2.6zm.154545-18.4L697 47.5l10 3h-9.545455zM698 67.5l-1.5-.774194-1.3125-2.580645-.1875-.258064L697.25 59.5l.75 8zm-1.4-11.3l-1.2-.8 1-.6.2 1.4zm-.1-5.8l-1-1 .8-.8.2 1.8zm-3.2-5.3l-.6-.2v-.2l.4-.8.2 1.2zm-.3-2.6h-2l1.090909-10L693 42.5zm-2.1 1.4l.4 1-.6.2.2-1.2zm-1.3 6.8l1 .8-1 .8h-.2l.2-1.6zm-.1 4.9l1.2.8-1.4 1 .2-1.8zm-.5 2.9l2 4.235294-2 3.294118L688 66.5l1-8zm0-11l-.444444 3H679l10-3zm2 28h-4l.631579-4L691 75.5zm-4.2 3h3.2l-4 5 .8-5zm.2-9v.470588L686.06383 77.5H665l22-8zm-2.117647 16h.470588L691 90.916667 683 98.5l1.882353-13zM701 121.5l-17-.222222L692.604938 111.5 701 121.5zm-1-20.928571L692.787879 108.5 686 100.785714 693.212121 93.5 700 100.571429zm-3-13.860903L692.628571 90.5 688 86.5l9 .210526zM697 84.5h-10l5.227273-8L697 84.5zm-3-14l-2.592593 4L689 70.5h5zm-2.068966-3l.689656.153846L694 69.5l-5-.153846 1.034483-1.384616L691.931034 67.5zM692 64.3l.2.4h-.4l.2-.4zm2-6.657143L691.8 60.5l-1.8-2.857143L692 56.5l2 1.142857zM691.8 48.5l-.8-.615385L692 46.5l1 1.384615-1.2.615385zm1.2 5.6l-1 .8-1-.8h2zm-10.130435 46.4L691 109.136364 680 120.5l2.869565-20zM682 136.5l10.117647-11L702 136.5h-20zm-283-10l-12.045455-13.777778L374.681818 126.5H374l1.818182-14 21.363636.222222L399 126.5zm-2-15l-10-9.743902L394.619048 94.5 397 111.5zm-2-19l-5-6.923077L393.62069 80.5h.172413L395 92.5zm-2.069767-22L392 62.5l20 8h-19.069767zM393 78.5l-4-5h3.4l.6 5zm-1-8h-4l3.368421-4L392 70.5zm-.8-7.6l-.4-.8.4.2v.6zm.261538-14.4L391 45.5l9 3h-8.538462zM391 61.5l-1.5-.535714-1.285714-1.607143L388 59.178571 390.357143 56.5 391 61.5zm-1.4-8.4l-1.2-.6 1-.6.2 1.2zm-.1-4.9l-1-.8.8-.6.2 1.4zm-.3-5.1l-.4-.2v-.2l.4-.8v1.2zm-1.2-2.6h-2l1-9 1 9zm-2.1 1.5l.4.8-.6.2.2-1zm-1.2 4.7l.8.8-.8.8h-.2l.2-1.6zm-.1 5.1l1 .6-1.2.8.2-1.4zm-.984615 2.7L385 58.629032l-1.384615 3.354839L383 62.5l.615385-8zM384 45.5l-.487805 3H374l10-3zm1 25h-3l.529412-4L385 70.5zm-2.5 2h2.5l-3 4 .5-4zm-.5-10v.516129L381.058824 70.5H362l20-8zm-1.193548 18h.516129L387 85.388889 379 92.5l1.806452-12zM395 112.5l-16-.243902L387.109589 102.5 395 112.5zm-1-20.21875L387.283333 99.5 381 92.28125 387.5 85.5l6.5 6.78125zm-2-11.604779L388 83.5l-4-3 8 .176471zM392 78.5h-9l4.615385-5L392 78.5zm-3-12l-2.6 3-2.4-3h5zm-2.115385-5l.576923.166667L389 63.5l-5-.166667L385.153846 62l1.730769-.5zM386 59.4l.2.2h-.4l.2-.2zm2-4.7l-1.666667 2.8L385 54.7l1.5-1.2 1.5 1.2zm-1-8.2l-.8-.545455L387 44.5l.8 1.454545L387 46.5zm1 2.8l-.909091.6L386 49.1l2 .2zm-9.560976 45.2L386 101.9375 376 111.5l2.439024-17zM376 127.5l10.728261-12L397 127.5h-21zm1901.61133 8.616391l-9.11527-73.365301h29.79136l.22232-1.778553-31.79227-12.005231-2.00091-16.4516129h16.89659l.44465-2.0008718-18.45286-7.5588492L2260.49241-3.5h-2.22323l-3.33486 26.233653-19.11982 7.5588492.44464 2.0008718h17.56357l-2.22324 16.896251-32.0146 11.782912.22233 1.778553h29.79136l-1.33394 10.671316-8.22598 62.693985h-152.73629l-8.00365-64.250218h26.23418l.22232-1.556234-28.01277-10.671317-1.77859-14.450741h14.89568l.44465-1.778552-16.22962-6.6695731-2.89021-23.1211857h-2.00091l-3.11253 22.8988666-16.89659 6.6695732.44465 1.778552h15.34032l-2.00091 14.89538-28.01277 10.448997.22232 1.556234h26.23419l-1.33395 9.337402-7.11435 54.912816h-81.1481v-18.230166h-28.90207v18.230166h-19.7868v-10.671317h-42.01915v-18.897123h-17.56357v18.897123h-16.22962v-14.450741h-25.34488v25.122058h-26.45651v-18.897123h-22.67701v18.897123h-73.5891l-7.11435-58.025284h23.78862l.22232-1.333914-25.56721-9.559721-1.55626-13.116827h13.56174l.22232-1.778553-14.89568-6.002615-2.66788-21.120314h-1.77859l-2.66789 20.897995-15.34032 6.002615.22232 1.778553h14.00639l-1.77859 13.561465-25.56721 9.337402.22232 1.333914h23.78862l-1.11161 8.448126-6.44739 49.354838h-18.67518v-24.4551h-17.34124c-1.55626-6.224934-2.44556-12.005231-2.66788-16.673932-.44465-19.341761.88929-38.683522.88929-38.683522h-47.35492s2.89021 16.673932 2.22324 36.68265c-.22233 5.335659-1.33394 12.005231-3.11253 18.674804h-17.78589V8.0605929h-10.89385V55.859198h-41.57451s2.8902 16.673932 2.22323 36.68265c-.22232 5.335659-1.33394 12.005231-3.11253 18.674804h-38.46198V73.422406h-26.23418v37.794246h-5.11344v-19.56408h-22.01003V24.5122058h-49.80048v78.2563212h-29.34672V68.753705h-26.23418v31.569312h-16.45194v-6.224935h-30.23601v30.235397h-20.45377l-.66697-77.811683 8.67062 12.449869 15.78497 20.453357 1.11162-.666957-14.00638-22.676548-10.67153-14.895379 7.33667-14.8953795L1266.92835.9463819l-1.11162-.6669573-14.67335 24.4551002-6.89203 15.3400172-16.45195 1.556234-29.12439 4.89102.22233 1.111595 29.79136-1.556233 15.56265-2.667829-1.77859 80.479511h-83.81599l-1.11162-60.693112 7.78133 11.338274 14.22871 18.674804.88929-.666958-12.89477-20.675675-9.55991-13.561465 6.66971-13.561465 10.22688-23.1211855-.88929-.4446381-13.33942 22.2319096-6.22506 14.006103-14.89568 1.556233-26.4565 4.446382.22232 1.111596 27.12348-1.556234 14.00638-2.44551-1.33394 63.360941H1115.526v12.005231h-41.12986l-1.11162-62.693984 7.11435 10.226678 12.89477 16.896252.88929-.666958-11.56082-18.674804-8.67062-12.22755 6.00274-12.22755 9.33759-20.8979946-.8893-.4446382-12.00547 20.0087188-5.55809 12.672188-13.56174 1.333915-24.01095 4.001743v.889277l24.4556-1.333915 12.67244-2.223191-1.33394 65.139494h-68.03101v-30.457715h-21.565391v30.902354h-12.45012v-24.67742h-27.790447v24.67742h-24.677917v-15.784656h-22.010034v7.558849h-7.336678v-23.343505h-16.451945v23.343505h-16.896592v-17.11857H830.95182v17.11857h-35.349448v-7.558849h-18.897504v7.558849h-42.90845v8.225807h-26.456506l-7.336678-58.692241h23.788623l.222323-1.333915-25.567211-9.559721-1.556265-13.116826h13.561738l.444647-1.778553-14.895679-6.002615-2.667883-21.1203142h-1.778589l-2.667883 20.8979952-15.340326 6.002615.222323 1.778553h14.006385l-1.778588 13.561464-25.567211 9.337402.222323 1.333915h23.788623l-1.111618 8.448126-6.669707 50.021795h-12.672444v-22.00959h-12.45012c-4.668796-12.672188-10.004561-29.34612-10.226885-40.017437-.444647-19.341761.889294-38.6835218.889294-38.6835218h-50.467451s3.11253 16.6739318 2.445559 36.6826508c-.444647 12.005231-6.22506 29.568439-10.893855 42.018308h-4.891119c-4.224148-12.005231-9.559914-28.679163-9.782237-40.017437-.444647-19.341761.889294-38.6835218.889294-38.6835218h-50.912099s3.11253 16.6739318 2.44556 36.6826508c-.444648 12.005231-6.225061 29.568439-10.893856 42.018308h-19.564474v-22.00959h-83.149018v34.681779h-6.89203l-6.669708-54.690497h21.565387l.222324-1.333915-22.899329-8.670445-1.556265-12.005231h12.227797l.222324-1.556233-13.339415-5.335659-2.445559-18.8971224h-1.556265l-2.44556 18.8971224-13.784061 5.335659.222323 1.556233h12.672444l-1.556265 12.227551-22.899328 8.448125.222323 1.333915h21.565387l-1.111618 7.558849-6.22506 47.131648h-28.679741V67.419791h-26.456506v43.574542h-18.897504v-10.671316h-32.681565v26.455972h-20.009122l-1.111618-62.027027 7.781325 11.338273 14.228709 18.674804.889294-.666957-12.894767-20.675676-9.559914-13.561464 6.669708-13.561465 10.226884-23.1211858-.889294-.4446382-13.339415 22.231909-6.22506 14.006103-14.89568 1.556234-26.456505 4.446382.222324 1.111595 27.123476-1.556233 14.006385-2.44551-1.333941 64.694856H122.628908v9.559721H62.823866l-1.1116179-62.693985 7.1143544 10.226679 12.8947674 16.896251.8892943-.666958-11.5608259-18.674803-8.6706195-12.22755 6.0027366-12.227551 9.3375902-20.8979944-.8892943-.4446382L64.8247782 55.636879l-5.5580894 12.672188-13.5617381 1.333915-24.0109462 4.001743v.889277l24.4555933-1.333915 12.6724438-2.223191-1.3339414 65.139495H-282V251.5h2681V136.116391h-121.38867z" fill="#142038" fill-rule="nonzero"/>
</svg>
