<svg xmlns="http://www.w3.org/2000/svg" width="190" height="37"><g fill="#FFF" fill-rule="nonzero"><path d="M84.162 36.695h-8.756s.019-19.033.019-20.734c0-1.698.292-3.097.293-3.103h7.668v9.69h18.75v-9.709h7.61c.001.005.317 1.73.293 3.258-.039 2.498-.576 5.7-2.537 8.605-1.619 2.4-2.692 3.083-4.292 4-1.48.849-3.619.858-3.63.858H85.865a7.796 7.796 0 0 1-1.523-.149c-.076-.014-.179-.041-.179-.039v7.323ZM136.454 9.081h-8.52v13.436h4.622v7.024s-.979.053-1.858.047c-1.941-.015-5.163-.618-7.59-3.325-3.35-3.735-3.24-8.072-3.24-8.492v-8.69h-8.195V2.168h24.78v6.913ZM61.49 29.56H47.771c-2.068 0-3.579-.8-4.546-1.361-.968-.562-2.771-1.994-4.235-4.824-1.462-2.829-1.658-5.713-1.658-7.414 0-1.698.292-3.097.293-3.103h7.668v9.69h18.751v-9.709h7.61c0 .005.316 1.73.292 3.258-.039 2.498-.576 5.7-2.536 8.605-1.62 2.4-2.693 3.083-4.293 4-1.48.849-3.619.858-3.629.858ZM147.25 29.541h-8.064V12.839h8.064zM160.007 29.541h-8.027v-14.96s-.268-5.012 3.244-8.884c3.252-3.585 6.875-3.512 6.888-3.512h18.013c2.287 0 4.234 1.073 5.948 2.673 1.709 1.597 2.882 4.223 2.887 4.234h-14.197l.017 20.45h-7.367V9.091h-7.44l.034 20.45ZM70.465 9.092H38.797s.768-2.009 2.915-4.214c2.682-2.755 5.995-2.693 6.001-2.692H61.63c2.286 0 4.234 1.072 5.947 2.672 1.71 1.597 2.883 4.223 2.888 4.234ZM108.556 9.092H76.888s.77-2.009 2.915-4.214c2.682-2.755 5.995-2.693 6.002-2.692h13.916c2.287 0 4.234 1.072 5.948 2.672 1.709 1.597 2.882 4.223 2.887 4.234ZM25.001 0c3.722 0 6.206 1.621 7.844 3.942 1.64 2.32 1.472 5.14 1.472 5.14h-7.13v-1.59H8.391v5.347h26.183v7.865c0 2.635-.921 5.059-2.714 6.876-2.146 2.176-6.839 2.518-6.839 2.518s-14.185-.01-16.63 0c-2.446.01-4.353-1.217-6.41-3.714C-.074 23.889 0 20.844 0 20.836h8.39v1.68h18.797v-5.072H0V12.84c0-2.125.12-5.109 2.68-8.741C5.35.313 10.201 0 10.212 0h14.79ZM147.25 1.951v7.13h-8.064v-7.13z"/><path d="M189.981 29.541h-8.065V12.839h8.065z"/></g></svg>